<svg width="32" height="32" viewBox="0 0 32 32" fill="none" xmlns="http://www.w3.org/2000/svg">
<g id="icon_back">
<path id="Union" fill-rule="evenodd" clip-rule="evenodd" d="M13.9706 9.64438C14.3265 9.22204 14.2726 8.59117 13.8503 8.2353C13.4279 7.87943 12.7971 7.93332 12.4412 8.35566L6.54697 15.3509C6.54404 15.3543 6.54114 15.3578 6.53826 15.3612L6 16L6.53831 16.6389C6.54116 16.6423 6.54403 16.6457 6.54692 16.6491L12.4412 23.6444C12.7971 24.0667 13.4279 24.1206 13.8503 23.7647C14.2726 23.4089 14.3265 22.778 13.9706 22.3557L9.45794 17H25.0024C25.5547 17 26.0024 16.5523 26.0024 16C26.0024 15.4477 25.5547 15 25.0024 15H9.45794L13.9706 9.64438Z" fill="black"/>
</g>
</svg>
